<?xml version="1.0" encoding="UTF-8"?>
<!DOCTYPE svg PUBLIC "-//W3C//DTD SVG 1.1//EN" "http://www.w3.org/Graphics/SVG/1.1/DTD/svg11.dtd">
<svg version="1.1" xmlns="http://www.w3.org/2000/svg" xmlns:xlink="http://www.w3.org/1999/xlink" x="0" y="0" width="220" height="311" viewBox="0, 0, 220, 311">
  <g id="Layer_1">
    <g>
      <path d="M11.983,0.161 C11.983,0.161 141.038,-0.158 141.038,0.102 C141.038,0.363 219.304,85.635 219.804,85.635 C220.303,85.635 219.692,298.483 219.692,298.483 C219.692,305.394 214.327,311 207.709,311 L11.983,311 C5.366,311 -0,305.394 -0,298.483 L-0,12.678 C-0,5.764 5.366,0.161 11.983,0.161 z" fill="#FCFCFC"/>
      <path d="M116.155,0 C121.861,0.002 126.91,0.002 132.572,0.019 C134.332,0.025 136.089,0.032 137.849,0.044 C140.505,0.063 139.768,0.025 141.038,0.102 C141.038,0.363 219.304,85.635 219.804,85.635 C220.303,85.635 219.692,298.483 219.692,298.483 C219.692,305.394 214.327,311 207.709,311 L11.983,311 C5.366,311 -0,305.394 -0,298.483 L-0,12.678 C-0,5.764 5.366,0.161 11.983,0.161 C46.708,0.08 81.432,0.009 116.155,0 z M116.527,6.259 C103.191,6.257 89.856,6.273 76.521,6.292 C67.833,6.305 58.666,6.321 49.211,6.338 C40.038,6.357 31.096,6.376 22.742,6.394 C19.818,6.401 17.178,6.407 14.863,6.411 C12.506,6.417 12.506,6.417 11.997,6.419 L11.983,6.419 C8.676,6.419 5.992,9.221 5.992,12.678 L5.992,298.483 C5.992,301.94 8.676,304.741 11.983,304.741 L207.709,304.741 C211.018,304.741 213.7,301.94 213.7,298.464 C213.702,298.256 213.702,298.256 213.704,297.246 C213.708,295.854 213.708,295.854 213.714,293.737 C213.724,289.921 213.736,285.565 213.748,280.742 C213.786,266.965 213.822,252.216 213.854,237.089 C213.89,221.495 213.92,206.374 213.944,192.047 C213.994,162.121 214.018,137.183 214.006,118.897 C213.998,108.514 213.98,100.416 213.95,94.817 C213.94,92.666 213.924,90.515 213.896,88.364 C212.993,87.417 213.628,88.085 211.997,86.351 C209.866,84.081 206.824,80.81 202.979,76.659 C195.967,69.086 186.409,58.718 175.913,47.302 C166.233,36.773 156.401,26.054 148.943,17.9 C145.198,13.807 142.167,10.483 140.058,8.161 C138.532,6.478 139.089,7.097 138.378,6.307 C137.036,6.294 138.004,6.303 135.468,6.288 C132.075,6.273 127.166,6.263 120.87,6.261 L116.527,6.259 z M214.006,88.479 C214.256,88.642 214,93.083 214.677,93.367 C214.939,93.477 215.236,93.271 215.502,93.169 C216.217,92.893 216.906,92.549 217.607,92.238 C215.6,90.144 216.598,91.185 214.609,89.113 L214.006,88.479 z M140.335,6.332 C140.673,6.745 140.87,6.874 140.595,6.338 L140.503,6.336 L140.335,6.332 z" fill="#000000"/>
    </g>
    <path d="M35.374,247.493 C35.374,261.771 46.457,273.347 60.126,273.347 L159.414,273.347 C173.083,273.347 184.166,261.771 184.166,247.493 L184.166,143.781 C184.166,129.503 173.083,117.927 159.414,117.927 L60.126,117.927 C46.457,117.927 35.374,129.503 35.374,143.781 L35.374,247.493" fill="#4D4E4C"/>
    <path d="M138.34,224.48 C135.418,226.723 130.934,227.862 125.011,227.862 L89.938,227.862 L89.938,204.08 L124.799,204.08 L124.799,204.069 C131.178,204.078 136.043,204.336 138.37,206.137 C141.16,208.296 142.516,211.166 142.516,214.911 C142.516,219.188 141.15,222.317 138.34,224.48 z M89.938,160.961 L122.32,160.961 C126.193,160.961 129.329,161.979 131.639,163.992 C133.898,165.957 134.995,168.567 134.995,171.965 C134.995,175.47 134.264,178.495 131.629,181.242 C128.921,184.071 126.069,184.424 124.056,184.73 L123.039,184.764 L89.938,184.764 L89.938,160.961 z M158.911,199.029 C155.538,194.817 151,191.757 145.382,189.919 C148.745,187.918 151.438,185.408 153.411,182.431 C155.911,178.656 157.182,174.237 157.182,169.297 C157.182,161.601 154.176,155.105 148.25,149.987 C142.414,144.951 134.803,142.396 125.634,142.396 L89.852,142.396 L89.852,160.84 L71.476,160.84 L71.474,184.753 L71.474,184.764 L48.57,184.764 L48.57,204.08 L71.47,204.08 L71.47,204.086 L71.468,228.002 L89.852,228.002 L89.852,246.427 L130.667,246.427 C137.435,246.427 143.419,245.263 148.456,242.97 C153.579,240.633 157.645,237.093 160.543,232.439 C163.439,227.785 164.909,222.446 164.909,216.57 C164.909,209.902 162.888,204.002 158.911,199.029" fill="#4AB8B4"/>
    <path d="M138.318,3.44 C137.519,2.606 139.516,88.556 138.717,88.139 C137.919,87.722 217.837,88.973 217.807,88.973" fill-opacity="0" stroke="#000000" stroke-width="6"/>
    <path d="M35.374,30.561 L119.544,30.561" fill-opacity="0" stroke="#000000" stroke-width="2"/>
    <path d="M35.374,58.515 L119.544,58.515" fill-opacity="0" stroke="#000000" stroke-width="2"/>
    <path d="M35.374,87.47 L119.544,87.47" fill-opacity="0" stroke="#000000" stroke-width="2"/>
  </g>
</svg>
